<mxfile host="app.diagrams.net" modified="2023-09-17T03:26:12.041Z" agent="Mozilla/5.0 (Windows NT 10.0; Win64; x64) AppleWebKit/537.36 (KHTML, like Gecko) Chrome/116.0.0.0 Safari/537.36" version="21.7.5" etag="Jats4EdPpBviXapK7L1m" type="github">
  <diagram name="第 1 页" id="_X8eTjKnc3jm7FoX8MNF">
    <mxGraphModel>
      <root>
        <mxCell id="0" />
        <mxCell id="1" parent="0" />
      </root>
    </mxGraphModel>
  </diagram>
</mxfile>
